<svg xmlns="http://www.w3.org/2000/svg"><defs><symbol id="camera" viewBox="0 0 24 24"><g fill="none" stroke="currentColor" stroke-linecap="round" stroke-linejoin="round" stroke-width="2"><path d="M14.5 4h-5L7 7H4a2 2 0 0 0-2 2v9a2 2 0 0 0 2 2h16a2 2 0 0 0 2-2V9a2 2 0 0 0-2-2h-3z"/><circle cx="12" cy="13" r="3"/></g></symbol><symbol id="github" viewBox="0 0 24 24"><path fill="currentColor" d="M12 .297c-6.63 0-12 5.373-12 12 0 5.303 3.438 9.8 8.205 11.385.6.113.82-.258.82-.577 0-.285-.01-1.04-.015-2.04-3.338.724-4.042-1.61-4.042-1.61C4.422 18.07 3.633 17.7 3.633 17.7c-1.087-.744.084-.729.084-.729 1.205.084 1.838 1.236 1.838 1.236 1.07 1.835 2.809 1.305 3.495.998.108-.776.417-1.305.76-1.605-2.665-.3-5.466-1.332-5.466-5.93 0-1.31.465-2.38 1.235-3.22-.135-.303-.54-1.523.105-3.176 0 0 1.005-.322 3.3 1.23.96-.267 1.98-.399 3-.405 1.02.006 2.04.138 3 .405 2.28-1.552 3.285-1.23 3.285-1.23.645 1.653.24 2.873.12 3.176.765.84 1.23 1.91 1.23 3.22 0 4.61-2.805 5.625-5.475 5.92.42.36.81 1.096.81 2.22 0 1.606-.015 2.896-.015 3.286 0 .315.21.69.825.57C20.565 22.092 24 17.592 24 12.297c0-6.627-5.373-12-12-12"/></symbol><symbol id="facebook" viewBox="0 0 24 24"><path fill="currentColor" d="M9.101 23.691v-7.98H6.627v-3.667h2.474v-1.58c0-4.085 1.848-5.978 5.858-5.978.401 0 .955.042 1.468.103a9 9 0 0 1 1.141.195v3.325a9 9 0 0 0-.653-.036 27 27 0 0 0-.733-.009c-.707 0-1.259.096-1.675.309a1.7 1.7 0 0 0-.679.622c-.258.42-.374.995-.374 1.752v1.297h3.919l-.386 2.103-.287 1.564h-3.246v8.245C19.396 23.238 24 18.179 24 12.044c0-6.627-5.373-12-12-12s-12 5.373-12 12c0 5.628 3.874 10.35 9.101 11.647"/></symbol><symbol id="linkedin" viewBox="0 0 24 24"><path fill="currentColor" d="M13 21H9V9h4v2a4.62 4.62 0 0 1 3.525-1.763A4.5 4.5 0 0 1 21 13.75V21h-4v-6.75a2.265 2.265 0 0 0-2.247-1.944A1.815 1.815 0 0 0 13 14.25zm-6 0H3V9h4zM5 7a2 2 0 1 1 0-4 2 2 0 0 1 0 4"/></symbol><symbol id="mail" viewBox="0 0 24 24"><g fill="none" stroke="currentColor" stroke-linecap="round" stroke-linejoin="round" stroke-width="2"><rect width="20" height="16" x="2" y="4" rx="2"/><path d="m22 7-8.97 5.7a1.94 1.94 0 0 1-2.06 0L2 7"/></g></symbol><symbol id="share" viewBox="0 0 24 24"><g fill="none" stroke="currentColor" stroke-linecap="round" stroke-linejoin="round" stroke-width="2"><circle cx="18" cy="5" r="3"/><circle cx="6" cy="12" r="3"/><circle cx="18" cy="19" r="3"/><path d="m8.59 13.51 6.83 3.98m-.01-10.98-6.82 3.98"/></g></symbol><symbol id="telegram" viewBox="0 0 24 24"><path fill="currentColor" d="M11.944 0A12 12 0 0 0 0 12a12 12 0 0 0 12 12 12 12 0 0 0 12-12A12 12 0 0 0 12 0zm4.962 7.224c.1-.002.321.023.465.14a.5.5 0 0 1 .171.325c.016.093.036.306.02.472-.18 1.898-.962 6.502-1.36 8.627-.168.9-.499 1.201-.82 1.23-.696.065-1.225-.46-1.9-.902-1.056-.693-1.653-1.124-2.678-1.8-1.185-.78-.417-1.21.258-1.91.177-.184 3.247-2.977 3.307-3.23.007-.032.014-.15-.056-.212s-.174-.041-.249-.024q-.159.037-5.061 3.345-.72.495-1.302.48c-.428-.008-1.252-.241-1.865-.44-.752-.245-1.349-.374-1.297-.789q.04-.324.893-.663 5.247-2.286 6.998-3.014c3.332-1.386 4.025-1.627 4.476-1.635"/></symbol><symbol id="tiktok" viewBox="0 0 24 24"><path fill="currentColor" d="M12.525.02c1.31-.02 2.61-.01 3.91-.02.08 1.53.63 3.09 1.75 4.17 1.12 1.11 2.7 1.62 4.24 1.79v4.03c-1.44-.05-2.89-.35-4.2-.97-.57-.26-1.1-.59-1.62-.93-.01 2.92.01 5.84-.02 8.75-.08 1.4-.54 2.79-1.35 3.94-1.31 1.92-3.58 3.17-5.91 3.21-1.43.08-2.86-.31-4.08-1.03-2.02-1.19-3.44-3.37-3.65-5.71-.02-.5-.03-1-.01-1.49.18-1.9 1.12-3.72 2.58-4.96 1.66-1.44 3.98-2.13 6.15-1.72.02 1.48-.04 2.96-.04 4.44-.99-.32-2.15-.23-3.02.37-.63.41-1.11 1.04-1.36 1.75-.21.51-.15 1.07-.14 1.61.24 1.64 1.82 3.02 3.5 2.87 1.12-.01 2.19-.66 2.77-1.61.19-.33.4-.67.41-1.06.1-1.79.06-3.57.07-5.36.01-4.03-.01-8.05.02-12.07"/></symbol><symbol id="whatsapp" viewBox="0 0 24 24"><path fill="currentColor" d="M17.472 14.382c-.297-.149-1.758-.867-2.03-.967-.273-.099-.471-.148-.67.15-.197.297-.767.966-.94 1.164-.173.199-.347.223-.644.075-.297-.15-1.255-.463-2.39-1.475-.883-.788-1.48-1.761-1.653-2.059-.173-.297-.018-.458.13-.606.134-.133.298-.347.446-.52s.198-.298.298-.497c.099-.198.05-.371-.025-.52s-.669-1.612-.916-2.207c-.242-.579-.487-.5-.669-.51a13 13 0 0 0-.57-.01c-.198 0-.52.074-.792.372-.272.297-1.04 1.016-1.04 2.479 0 1.462 1.065 2.875 1.213 3.074s2.096 3.2 5.077 4.487c.709.306 1.262.489 1.694.625.712.227 1.36.195 1.871.118.571-.085 1.758-.719 2.006-1.413s.248-1.289.173-1.413c-.074-.124-.272-.198-.57-.347m-5.421 7.403h-.004a9.87 9.87 0 0 1-5.031-1.378l-.361-.214-3.741.982.998-3.648-.235-.374a9.86 9.86 0 0 1-1.51-5.26c.001-5.45 4.436-9.884 9.888-9.884 2.64 0 5.122 1.03 6.988 2.898a9.82 9.82 0 0 1 2.893 6.994c-.003 5.45-4.437 9.884-9.885 9.884m8.413-18.297A11.82 11.82 0 0 0 12.05 0C5.495 0 .16 5.335.157 11.892c0 2.096.547 4.142 1.588 5.945L.057 24l6.305-1.654a11.9 11.9 0 0 0 5.683 1.448h.005c6.554 0 11.89-5.335 11.893-11.893a11.82 11.82 0 0 0-3.48-8.413"/></symbol><symbol id="wire" viewBox="0 0 24 24"><path fill="currentColor" d="M24 14.475a7.395 7.395 0 0 1-7.38 7.41h-.016a7.3 7.3 0 0 1-4.5-1.605A7.498 7.498 0 0 1 0 14.475V2.82h1.41v11.655a6 6 0 0 0 9.585 4.815 7.38 7.38 0 0 1-1.815-4.814v-9.54a2.82 2.82 0 0 1 5.64 0v9.54a7.37 7.37 0 0 1-1.77 4.814 5.997 5.997 0 0 0 8.383-1.304 6 6 0 0 0 1.157-3.511V2.82H24zm-10.59-9.54a1.41 1.41 0 0 0-2.82 0v9.54A6 6 0 0 0 12 18.33a6 6 0 0 0 1.41-3.855z"/></symbol><symbol id="x" viewBox="0 0 24 24"><path fill="currentColor" d="M18.901 1.153h3.68l-8.04 9.19L24 22.846h-7.406l-5.8-7.584-6.638 7.584H.474l8.6-9.83L0 1.154h7.594l5.243 6.932ZM17.61 20.644h2.039L6.486 3.24H4.298Z"/></symbol></defs></svg>